<?xml version="1.0"?>
<svg xmlns="http://www.w3.org/2000/svg" xmlns:xlink="http://www.w3.org/1999/xlink" version="1.1" id="Capa_1" x="0px" y="0px" viewBox="0 0 511.998 511.998" style="enable-background:new 0 0 511.998 511.998;" xml:space="preserve" width="512px" height="512px" class=""><g transform="matrix(0.276515 0 0 0.276515 185.212 185.212)"><g>
	<g>
		<g>
			<path d="M100.631,440.082c-5.821,6.953-9.478,20.147-3.697,27.16c0.237,0.536,0.463,1.074,0.755,1.598     c6.005,10.761,20.972,12.208,30.522,5.522c11.02-7.716,11.506-24.015,3.771-34.231     C123.854,429.396,109.055,430.019,100.631,440.082z M109.064,470.867c-0.789-0.27-1.534-0.606-2.234-0.997     c0.018-0.395-0.119-0.8-0.527-1.144c-8.208-6.939-6.628-18.142,0.66-25.282c9.993-9.79,22.378-0.343,22.925,11.647     C130.4,466.314,119.895,474.568,109.064,470.867z" data-original="#000000" class="active-path" data-old_color="#D5DA23" fill="#DEE421"/>
			<path d="M367.632,440.082c-5.821,6.953-9.478,20.147-3.697,27.16c0.237,0.536,0.463,1.074,0.755,1.598     c6.005,10.761,20.972,12.208,30.522,5.522c11.02-7.716,11.506-24.015,3.771-34.231     C390.855,429.396,376.056,430.019,367.632,440.082z M376.065,470.867c-0.789-0.27-1.534-0.606-2.234-0.997     c0.018-0.395-0.119-0.8-0.526-1.144c-8.208-6.939-6.628-18.142,0.66-25.282c9.992-9.79,22.378-0.343,22.925,11.647     C397.401,466.314,386.897,474.568,376.065,470.867z" data-original="#000000" class="active-path" data-old_color="#D5DA23" fill="#DEE421"/>
			<path d="M404.206,259.374c-5.409-2.691-11.871-1.339-17.612-0.939c-1.738,0.121-3.463,0.25-5.182,0.385     c-6.209,0.318-12.441,1.119-18.567,1.763c-11.201,1.179-16.419,3.935-18.192,15.754c-2.673,17.814,1.999,36.945,4.007,54.637     c0.939,8.282-1.084,23.731,7.288,28.84c4.612,2.816,10.823,1.962,15.933,1.691c8.627-0.457,17.29-0.321,25.929-0.575     c9.154-0.27,18.296-0.811,27.447-1.125c5.424-0.186,11.509,0.776,16.79-0.679c10.688-2.945,9.121-16.759,8.547-25.439     c-0.899-13.583-7.83-23.012-15.618-33.767c-6.37-8.794-12.675-17.641-18.707-26.671     C413.005,268.367,409.712,262.113,404.206,259.374z M363.722,353.35c-7.458-2.347-5.972-14.208-6.703-20.362     c-1.04-8.751-2.323-17.471-3.396-26.217c-0.026-0.212-0.053-0.426-0.079-0.638c2.815-0.004,5.493,0.118,8.167,1.792     c5.007,3.134,6.176,9.804,7.392,15.43c2.144,9.91,1.203,20.605,5.539,29.917C370.817,353.761,366.697,354.286,363.722,353.35z      M428.762,351.227c-7.696,0.066-15.411,0.678-23.103,0.953c-0.634,0.022-1.268,0.032-1.902,0.053     c1.394-3.296,1.59-7.309,2.124-10.792c1.235-8.049,3.608-15.862,4.518-23.942c3.215-0.1,6.399-0.064,9.603,0.111     c-2.961,7.028-7.476,16.125-2.413,22.231c4.47,5.391,15.614,7.561,22.94,8.085C438.209,351.453,434.197,351.181,428.762,351.227z      M442.541,340.958c-5.76-1.803-13.771-1.321-18.6-4.86c-5.38-3.943,1.466-15.282,3.345-20.427     c0.549-1.502-0.621-3.422-2.137-3.763c-5.935-1.335-11.887-1.289-17.95-1.249c-2.041,0.013-3.273,1.598-3.486,3.486     c-1.373,12.186-6.561,25.645-5.528,38.242c-5.215,0.132-10.43,0.237-15.647,0.318c-0.019-0.278-0.064-0.563-0.156-0.859     c-4.359-14.014-3.872-29.363-10.208-42.79c-4.476-9.485-11.09-10.126-19.245-7.869c-0.684-5.604-1.271-11.251-1.172-16.874     c0.084-4.679-0.282-10.087,3.122-13.605c2.884-2.981,6.845-2.623,10.839-3.099c5.297-0.631,10.658-1.339,16.037-1.883     c0.255,0,0.507-0.01,0.761-0.008c6.56,0.038,15.143-1.666,20.321,3.152c4.949,4.606,8.642,12.161,12.479,17.612     c4.908,6.972,9.936,13.857,14.983,20.728C437.879,317.525,444.027,327.708,442.541,340.958z" data-original="#000000" class="active-path" data-old_color="#D5DA23" fill="#DEE421"/>
			<path d="M313.709,348.391c1.728-2.775,3.108-6.15,4.051-10.292c2.922-12.822,3.671-26.575,3.528-39.655     c-0.111-10.138,0.753-24.539-6.004-33c-5.549-6.949-14.729-7.567-22.965-7.844c-13.815-0.465-27.712-0.1-41.537,0.723     c-39.003-2.353-78.604,0.163-117.228,0.841c-10.834,0.19-21.477-0.258-32.279-0.673c-7.662-0.294-18.036-0.735-23.857,5.357     c-5.307,5.555-5.29,14.822-5.298,21.924c-0.014,13.535,0.727,26.853,2.495,40.286c0.958,7.274,0.253,16.87,3.495,23.623     c0.563,1.173,1.264,2.169,2.051,3.046c-8.351-0.186-16.568,1.105-20.842,6.733c-3.311,4.359-1.152,10.075,3.025,13.095     c3.979,2.878,8.987,2.474,13.651,2.543c9.479,0.141,18.951,0.61,28.433,0.678c39.152,0.28,78.243,2.913,117.395,1.838     c18.892-0.519,37.805-1.709,56.707-1.618c13.95,0.067,31.539,2.495,44.897-2.53c8.251-3.103,13.025-13.531,5.838-20.284     C325.397,349.545,319.74,348.344,313.709,348.391z M93.094,267.037c7.149-0.59,14.348,0.505,21.49,0.674     c11.638,0.275,23.341-0.289,34.97-0.694c26.673-0.928,53.349-2.371,80.046-1.827c25.579,0.522,50.986,2.955,76.506,4.203     c7.618,5.962,5.79,22.377,5.772,30.928c-0.023,10.912-0.799,22.013-2.731,32.766c-1.83,10.183-5.043,16.893-16.342,18.059     c-6.279,0.648-12.652,0.876-19.025,0.959c4.549-9.055,0.547-23.679-5.961-30.363c-4.505-4.627-10.45-7.158-16.723-8.231     c-0.541-6.098-9.358-10.104-14.609-9.685c-3.691,0.295-6.327,2.225-7.458,4.865c-2.999-2.16-7.256-3.205-10.317-2.745     c-6.155,0.925-8.745,5.318-9.223,10.402c-4.483-1.732-9.752-2.194-13.372,0.142c-6.565,4.237-3.519,10.813-0.201,16.075     c-4.908,2.181-9.664,5.715-10.194,11.255c-0.312,3.252,1.053,5.911,3.21,7.891c-0.851-0.012-1.702-0.016-2.553-0.031     c-9.615-0.166-19.212-0.435-28.808-0.66c1.46-6.889,1.114-14.586,1.669-21.494c0.43-5.364,1.923-14.306-2.333-18.682     c-3.924-4.035-11.33-4.673-18.717-4.338c0.642-3.855,0.271-8.085-0.27-11.938c3.215-1.249,6.403-2.579,9.491-4.111     c2.918-1.447,6.167-2.7,7.117-6.061c0.49-1.734-1.201-3.505-2.966-2.965c-6.111,1.869-11.834,5.8-17.857,8.195     c-1.627,0.647-2.531,2.008-2.157,3.798c0.896,4.276,1.669,8.957,2.84,13.328c-4.782,0.396-9.3,1.032-12.552,1.233     c-1.876,0.116-3.599,1.531-3.547,3.546c0.33,12.878,0.957,26.34,3.087,39.155c-0.51,0.007-1.02,0.006-1.53,0.014     c-7.843,0.123-29.986,2.635-34.082-5.539c-1.257-2.509-0.765-6.452-1.04-9.227c-0.572-5.785-1.607-11.522-2.279-17.296     c-1.135-9.762-1.524-19.472-1.58-29.293C80.808,278.825,79.998,268.117,93.094,267.037z M199.487,350.411     c-2.931-1.741-7.585-3.111-6.612-7.027c0.635-2.551,4.497-4.327,7.277-5.355C198.741,342.136,198.259,346.566,199.487,350.411z      M202.429,322.128c2.284-0.333,5.2,0.995,7.49,2.223c-1.524,1.262-2.987,2.592-4.292,4.073c-0.84,0.953-1.647,2.048-2.4,3.232     C201.09,328.727,196.815,322.947,202.429,322.128z M212.269,332.225c6.346-6.368,15.461-10.071,24.253-11.394     c8.129-1.222,17.868-0.666,24.466,4.808c9.352,7.76,4.229,16.999,5.939,26.513c-3.226,0.005-6.445-0.003-9.641,0.009     c-17.155,0.061-34.332-0.051-51.5-0.247C206.243,344.378,205.935,338.581,212.269,332.225z M222.389,312.24     c2.211,0.344,3.934,1.656,5.714,2.833c-4.172,1.175-8.253,2.834-12.018,4.985C215.157,315.632,216.886,311.384,222.389,312.24z      M232.833,313.962c0.253-2.697,1.852-4.477,5.092-4.25c1.74,0.122,3.445,0.783,4.816,1.864c0.497,0.391,0.893,0.843,1.245,1.321     c-2.529-0.028-5.046,0.128-7.478,0.447C235.288,313.504,234.06,313.721,232.833,313.962z M125.562,314.775     c3.118-0.258,6.237-0.504,9.363-0.619c3.637-0.134,13.441-1.432,16.43,1.233c3.205,2.859,1.175,12.423,0.808,16.329     c-0.6,6.379-0.817,12.798-1.66,19.149c-8.133-0.165-16.266-0.265-24.411-0.22C127.483,338.868,126.231,326.602,125.562,314.775z      M318.719,366.254c-1.986,0.4-3.987,0.694-6.005,0.882c-14.633,1.787-29.477,0.884-44.18,1.306     c-33.203,0.953-66.336,3.23-99.564,1.741c-31.806-1.425-63.627-1.022-95.431-2.116c-5.403-0.186-11.34-3.351-4.156-5.801     c3.595-1.226,7.547-1.482,11.29-1.875c4.687-0.492,9.333-1.23,13.985-1.846c1.045,0.132,2.082,0.246,3.095,0.356     c13.45,1.462,26.979,0.33,40.466,0.421c15.41,0.103,30.816,1.025,46.224,1.352c28.846,0.613,57.841,1.076,86.689,0.53     c10.685-0.202,22.239-2.583,33.306-3.072c4.343-0.192,13.161-1.456,16.455,1.811C324.33,363.353,323.44,365.672,318.719,366.254z     " data-original="#000000" class="active-path" data-old_color="#D5DA23" fill="#DEE421"/>
			<path d="M501.955,432.672c-4.112-8.977-13.282-11.914-22.402-13.034c2.88-5.602,2.265-12.709,2.024-18.855     c-0.363-9.329-0.435-18.542-0.143-27.883c0.547-17.471,4.602-37.814-0.028-54.938c-4.537-16.779-20.207-29.821-30.16-43.444     c-4.961-6.791-9.77-19.48-17.069-26.446c8.947-0.195,18.826-1.106,24.44-7.262c7.462-8.183,6.926-25.262,2.207-34.594     c-5.632-11.136-18.036-12.503-29.164-13.849c-35.831-4.334-71.618-2.049-107.466-1.283c-0.265-0.014-0.531-0.02-0.795-0.034     c0.284-3.383-0.308-6.939-0.52-10.278c-0.17-2.688-0.329-5.375-0.505-8.06c11.674-0.289,23.345-0.783,35.024-1.657     c9.567-0.716,18.997-1.583,23.321-11.425c4.673-10.636-0.877-22.727-5.32-32.466c-11.841-25.951-25.118-53.068-45.63-73.379     c-19.601-19.408-47.455-29.023-75.562-29.483c-0.781-4.611,1.085-9.579,0.245-14.274c-1.083-6.047-5.981-9.353-12.021-9.029     c-6.677,0.358-11.458,4.568-13.732,10.568c-3.231-8.008-9.574-12.659-18.495-11.347c-8.178,1.203-11.966,7.511-10.405,15.427     c0.774,3.93,2.553,7.824,4.301,11.434c-19.848-15.144-51.073-7.528-71.398,3.219c-23.359,12.351-39.994,32.171-51.794,55.42     c-9.608,18.931-20.02,45.758-9.279,66.375c5.391,10.348,15.531,16.086,26.519,18.969c6.864,1.801,15.346,3.27,23.29,2.66     c-0.169,2.965-0.558,5.917-0.91,8.924c-0.313,2.674-0.703,5.579-0.226,8.24c-1.939-0.015-3.879-0.008-5.817-0.036     c-19.044-0.277-38.076-2.044-57.13-1.26c-13.805,0.568-32.209,0.674-42.189,11.799c-7.711,8.597-9.51,24.117-3.159,34.042     c3.416,5.34,8.498,7.565,14.083,8.5c-2.611,22.283-1.167,45.498-1.198,67.815c-0.035,25.616,1.023,51.226,1.771,76.827     c0.314,10.733-2.781,25.842,0.239,37.003c-8.421,2.564-15.046,7.849-16.829,17.371c-2.104,11.236,2.081,21.583,13.257,25.221     c11.706,3.81,29.264,7.021,41.354,3.584c6.69,26.415,33.853,42.692,61.187,39.942c26.584-2.674,42.363-22.827,45.887-45.56     c8.686,3.721,19.077,3.058,28.364,2.863c15.279-0.32,30.585-0.176,45.87-0.337c16.177-0.17,32.355-0.117,48.532-0.092     c7.366,0.011,14.743-0.091,22.106,0.073c5.07,0.113,9.793,0.641,14.185-1.115c4.728,28.885,33.296,47.061,62.058,44.167     c26.335-2.649,42.058-22.454,45.775-44.925c14.633,4.046,34.617,4.466,47.678-1.361     C498.468,459.995,508.061,446.003,501.955,432.672z M439.973,281.107c8.67,12.559,23.718,25.641,27.5,40.696     c2.844,11.32,1.719,24.327,0.782,36.735c-32.781,10.528-65.949,19.755-99.015,29.336c-16.693,4.837-33.423,9.563-49.989,14.821     c-2.928,0.929-21.219,8.948-22.957,7.66c0.845,0.626,8.051-13.358,8.805-15.446c0.802-2.225-1.258-4.293-3.343-4.387     c-20.167-0.911-39.971,3.269-59.723,6.753c-10.468,1.846-20.993,3.341-31.467,5.16c-8.867,1.54-20.511,5.632-30.043,4.797     c3.471-6.634,10.821-13.427,9.387-20.751c-1.663-8.483-13.528-5.269-19.381-4.558c-36.433,4.422-72.436,5.87-108.162,15.389     c-0.819-1.805-1.86-3.468-3.218-4.906c-5.091-5.388-12.708-5.223-19.362-2.865c-0.084-7.955-0.247-15.914-0.525-23.909     c-0.743-21.331-1.265-42.638-1.603-63.98c-0.297-18.79,0.673-38.395-2.599-57.051c2.41,0.029,4.804,0,7.099,0.034     c20.501,0.303,41.009,1.473,61.511,1.945c42.745,0.983,85.485,1.287,128.239,1.537c42.332,0.248,84.652,1.486,126.986,1.463     c21.005-0.012,42.012-0.338,62.999-1.236c1.553,5.176,4.956,9.683,7.471,14.442C432.698,269.087,435.918,275.233,439.973,281.107     z M467.943,418.661c0.004,0.064,0.019,0.12,0.025,0.183c-4.801-0.198-9.605-0.35-14.407-0.579     c0.129-2.065-0.066-4.209-0.012-6.219c0.115-4.24,0.309-8.575,1.156-12.74c1.688-8.317,5.71-12.175,12.807-12.866     c0.069,3.724,0.198,7.447,0.446,11.175C468.429,404.674,467.5,411.698,467.943,418.661z M56.641,424.964     c-4.89-0.892-10.217-1.447-15.492-1.385c-1.473-2.251-1.339-5.488-1.317-9.651c0.037-6.579,0.028-13.136-0.016-19.691     c6.964-0.801,14.221-1.119,16.674,7.057C58.807,409.016,55.943,417.164,56.641,424.964z M236.659,17.012     c0.754-2.685,3.682-8.002,7.462-6.314c1.686,0.752,1.007,4.189,0.885,6.024c-0.174,2.601-0.468,5.183-0.301,7.757     c-3.019,0.173-6.027,0.475-9.022,0.859C235.883,22.554,235.893,19.741,236.659,17.012z M213.481,8.111     c9.809,0.228,8.391,11.188,9.893,19.367c-3.532,0.812-7.013,1.784-10.435,2.897C211.523,21.749,201.631,7.836,213.481,8.111z      M306.161,51.926c21.748,13.643,35.385,37.579,46.694,59.889c5.107,10.074,11.489,20.91,14.673,31.806     c1.913,6.553,2.729,12.114-5.031,13.784c-6.303,1.356-13.486,1.208-19.882,1.659c-32.051,2.26-64.406,1.335-96.514,1.092     c-16.276-0.123-33.112-1.038-49.848-1.028c-0.088-0.005-0.178-0.01-0.268-0.015c-11.475-0.68-22.964-1.407-34.457-0.82     c-5.797,0.296-18.77,3.195-21.949-2.663c-2.774-5.111,0.809-14.687,2.252-19.762c2.34-8.228,5.47-16.232,8.805-24.1     c7.046-16.625,14.567-32.425,27.604-45.33C210.425,34.579,267.521,27.685,306.161,51.926z M316.216,190.745     c-4.286-0.159-8.577-0.281-12.879-0.31c-0.481-0.003-0.962-0.004-1.443-0.007c0.213-0.305,0.392-0.629,0.479-0.985     c0.919-3.766-0.461-8.544-0.519-12.433c-0.02-1.34-0.033-2.662-0.067-3.976c5.156-0.026,10.31-0.094,15.464-0.193     c-0.172,2.643-0.328,5.286-0.495,7.931C316.549,184.038,315.989,187.456,316.216,190.745z M296.075,190.398     c-39.863-0.238-79.749-0.248-119.608,0.09c-9.327,0.079-18.66,0.212-27.994,0.314c0.007-3.893-0.897-7.959-0.996-11.839     c-0.058-2.296-0.096-4.595-0.39-6.838c6.599,0.27,13.549-0.729,19.478-0.852c33.739-0.697,68.321,4.366,102.069,1.598     c8.816,0.103,17.623,0.17,26.427,0.169C293.502,179.156,292.495,186.395,296.075,190.398z M127.027,172.896     c0.993-0.225,1.973-0.48,2.925-0.796c3.601,0.368,7.243,0.308,10.887,0.03c-0.091,3.449-0.212,6.89-0.418,10.37     c-0.167,2.824-0.296,5.746,0.451,8.376c-4.396,0.035-8.792,0.058-13.188,0.055c-0.463-3.996-0.75-7.765-0.632-11.934     C127.109,176.968,127.155,174.918,127.027,172.896z M152.262,78.829c-2.962,4.849-5.644,9.919-8.063,15.195     c-2.051-1.092-4.548-1.895-7.127-2.367c-1.437-4.494-2.647-9.872,0.07-12.92C140.799,74.632,147.387,77.539,152.262,78.829z      M155.476,56.167c2.666-1.323,5.702-1.818,8.615-1.098c1.788,0.442,3.202,1.489,4.577,2.575     c-3.91,3.999-7.505,8.251-10.781,12.756c-2.269-1.878-5.145-3.203-8.236-3.963C149.319,62.136,150.573,58.601,155.476,56.167z      M190.484,35.471c2.599-0.131,4.986,0.32,7.281,1.031c-4.527,2.229-8.879,4.746-12.995,7.57c-2.691,1.847-5.263,3.79-7.721,5.825     c-1.177-1.248-2.643-2.321-4.2-3.214C176.706,40.496,182.903,35.853,190.484,35.471z M80.851,140.261     c-4.586-18.582,5.376-40.576,14.228-56.414c10.31-18.446,24.574-33.673,43.385-43.686c10.522-5.6,22.426-9.537,34.372-10.304     c1.337-0.086,2.673-0.121,4.008-0.131c-4.865,3.019-10.177,8.464-11.703,14.193c-5.541-0.89-11.363,0.264-16.161,3.177     c-5.968,3.623-10.913,12.159-9.498,18.968c-4.531,0.787-8.691,2.888-11.327,6.504c-4.406,6.046-3.424,13.286,0.294,18.956     c-0.644,0.122-1.269,0.269-1.855,0.461c-6.411,2.108-6.74,6.461-8.352,11.827c-1.276,4.248-2.126,3.001-5.86,4.703     c-2.612,1.189-4.424,2.733-5.744,5.311c-1.173,2.29-1.598,4.566-1.109,7.135c0.501,2.633,3.886,5.957,3.835,8.294     c-0.07,3.215-6.408,4.335-9.364,6.997c-3.447,3.104-4.853,7.35-3.51,11.866c1.699,5.717,5.137,9.21,9.397,11.187     C94.281,157.787,84.033,153.161,80.851,140.261z M117.584,152.648c-1.941-0.499-10.222-4.368-9.557-7.264     c0.288-1.256,2.435-1.514,3.247-2.214c4.789-4.128,10.698-5.312,10.3-13.1c-0.17-3.344-4.35-7.077-4.196-9.753     c0.207-3.61,6.353-4.1,8.549-6.812c2.715-3.354,0.619-6.682,1.968-9.777c1.913-4.385,8.046-2.902,13.03-2.307     c-6.639,15.076-13.834,30.989-14.827,47.467c-0.104,1.742-0.089,3.53,0.069,5.303     C123.369,153.648,120.586,153.419,117.584,152.648z M22.624,221.891c-0.068-7.91,4.17-13.073,11.637-15.15     c16.101-4.477,34.397-3.377,50.934-2.914c34.503,0.966,68.91,0.171,103.418-0.399c39.571-0.655,79.163-1.089,118.738-1.459     c33.82-0.315,68.078,2.569,101.923,1.099c11.278,0.463,23.201,1.326,32.895,5.191c4.431,1.767,5.856,4.139,6.385,8.93     c0.341,3.089,1.169,11.413-1.353,13.933c-2.432,2.43-9.634,1.807-12.685,1.997c-9.515,0.59-19.041,1.012-28.569,1.346     c-18.406,0.647-36.826,0.9-55.243,0.943c-36.192,0.086-72.379-0.634-108.57-0.77c-69.551-0.262-139.105-0.113-208.608-3.078     C26.434,231.259,22.691,229.71,22.624,221.891z M63.128,459.637c-0.383,0.049-0.776,0.12-1.188,0.251     c-8.647,2.753-18.753,0.095-27.446-1.426c-8.071-1.412-18.098-5.494-11.358-15.852c7.437-11.425,32.045-3.041,42.478-1.084     C65.304,442.91,62.602,459.704,63.128,459.637z M136.202,495.456c-20.587,8.66-48.269-0.11-57.817-20.852     c-6.015-13.066-3.636-28.465,2.457-41.066c3.962-8.193,9.29-14.567,16.009-19.08c13.662-5.042,29.888-4.297,41.938,3.277     c13.575,8.533,20.386,24.792,20.131,40.454C158.668,473.76,151.079,489.198,136.202,495.456z M403.204,495.456     c-20.586,8.66-48.269-0.11-57.817-20.852c-6.015-13.066-3.636-28.465,2.457-41.066c3.962-8.193,9.29-14.567,16.009-19.08     c13.662-5.042,29.888-4.297,41.938,3.277c13.575,8.533,20.386,24.792,20.131,40.454     C425.669,473.76,418.08,489.198,403.204,495.456z M425.763,417.433c-2.511-2.982-5.346-5.76-8.567-8.234     c-11.649-8.949-27.203-12.778-41.703-10.401c-10.475,1.717-18.759,6.865-25.076,14.122     c-11.677,10.221-19.021,26.824-20.13,42.256c-11.382-2.08-24.389-0.561-35.763-0.544c-15.512,0.024-31.022,0.014-46.533,0.216     c-25.131,0.327-50.45,0.509-75.488,2.859c0.388-18.066-6.802-36.596-22.308-48.507c-11.649-8.949-27.203-12.778-41.703-10.401     c-10.475,1.717-18.759,6.865-25.076,14.122c-5.191,4.544-9.522,10.354-12.837,16.758c-0.729-0.804-1.648-1.469-2.794-1.866     c-1.034-0.358-2.154-0.702-3.314-1.035c0.244-7.44,1.368-17.232-0.66-25.289c28.629-2.703,56.602-9.073,85.401-11.063     c6.579-0.455,13.181-0.953,19.739-1.663c3.099-0.336,9.337-2.73,11.895-1.229c4.564,2.679-7.059,16.645-8.282,21.428     c-0.449,1.758,0.566,3.694,2.366,4.167c7.424,1.954,14.583-0.054,21.951-1.433c12.161-2.277,24.386-4.231,36.61-6.137     c20.84-3.25,41.538-8.352,62.695-8.244c-4.111,7.15-11.134,18.998-1.238,20.344c6.217,0.845,16.519-5.388,22.408-7.323     c10.387-3.413,20.85-6.592,31.329-9.709c39.643-11.792,79.501-22.882,119.078-34.894c-0.142,2.437-0.247,4.836-0.274,7.168     c-0.034,3.099-0.042,6.192-0.024,9.283c-7.329-2.039-14.174,1.544-17.855,9.371c-2.199,4.674-3.213,9.87-3.787,14.973     c-0.362,3.23-1.078,7.419-0.825,11.159C438.666,417.104,431.892,416.415,425.763,417.433z M488.484,446.222     c-3.464,6.039-10.928,7.802-17.223,8.537c-10.444,1.22-21.414-0.252-31.747,1.714c0.022-9.357-1.979-18.793-6.13-27.331     c8.376,0.623,17.304,0.12,24.94,0.537c8.222,0.449,17.473-0.471,25.252,2.679C489.847,434.899,492.081,439.95,488.484,446.222z" data-original="#000000" class="active-path" data-old_color="#D5DA23" fill="#DEE421"/>
			<path d="M211.77,111.903c3.676,0,6.569-3.278,6.517-6.704c0.225-2.137-0.717-4.44-2.651-5.664     c-3.24-2.051-7.692-0.788-9.472,2.598c-1.095,2.081-1.213,4.481,0,6.555C207.319,110.662,209.481,111.903,211.77,111.903z" data-original="#000000" class="active-path" data-old_color="#D5DA23" fill="#DEE421"/>
			<path d="M226.784,81.589c2.68,1.568,6.695,1.24,8.852-1.142c0.164-0.182,0.33-0.363,0.494-0.545c2.457-2.714,2.47-6.512,0-9.24     c-0.164-0.182-0.33-0.364-0.494-0.545c-1.963-2.169-5.396-2.601-7.98-1.511c-2.562,1.081-4.62,3.778-4.49,6.676     C223.28,77.829,224.539,80.275,226.784,81.589z" data-original="#000000" class="active-path" data-old_color="#D5DA23" fill="#DEE421"/>
			<path d="M248.132,127.947c2.524,0,4.908-1.369,6.183-3.547c1.397-2.387,1.087-4.828,0-7.229     c-0.049-0.109-0.098-0.219-0.148-0.328c-0.984-2.175-3.772-3.462-6.035-3.462c-2.262,0-5.05,1.286-6.035,3.462     c-0.05,0.11-0.099,0.219-0.148,0.328c-1.087,2.401-1.397,4.842,0,7.229C243.224,126.578,245.608,127.947,248.132,127.947z" data-original="#000000" class="active-path" data-old_color="#D5DA23" fill="#DEE421"/>
			<path d="M262.206,85.2c-1.215,1.129-1.917,3.337-1.304,4.936c0.406,1.06,0.769,2.147,1.638,2.944     c0.094,0.073,0.189,0.146,0.283,0.218c-0.093-0.063-0.061-0.023,0.13,0.148c2.684,2.472,6.67,1.943,8.642-1.114     c0.926-1.435,1.069-3.265,0.624-4.887c-1.187-4.32-6.522-5.487-9.679-2.555C262.43,84.994,262.318,85.097,262.206,85.2z" data-original="#000000" class="active-path" data-old_color="#D5DA23" fill="#DEE421"/>
			<path d="M292.235,106.833c1.025,2.593,4.271,2.598,5.298,0c0.082-0.208,0.164-0.416,0.247-0.624     c0.733-1.854-1.103-3.802-2.896-3.802c-1.799,0-3.626,1.952-2.896,3.802C292.07,106.416,292.152,106.624,292.235,106.833z" data-original="#000000" class="active-path" data-old_color="#D5DA23" fill="#DEE421"/>
			<path d="M273.262,126.982c0.146,0.346,0.292,0.692,0.438,1.037c0.404,0.796,1.172,1.575,1.959,2.006     c1.861,1.017,3.92,0.639,5.709-0.297c3.363-1.76,2.117-7.201-1.439-7.611c-0.831-0.788-1.92-1.212-3.258-1.032     c-2.006,0.269-3.601,1.991-3.59,4.065c0,0.097,0.044,0.603,0.076,0.959C273.051,125.499,273.083,125.771,273.262,126.982z" data-original="#000000" class="active-path" data-old_color="#D5DA23" fill="#DEE421"/>
			<path d="M304.594,128.258c-0.261,0.621-0.522,1.241-0.783,1.862c-0.613,1.458,0.107,3.597,1.221,4.62     c0.928,0.853,2.071,1.391,3.357,1.391c1.217,0,2.497-0.53,3.357-1.391c1.079-1.08,1.855-3.114,1.221-4.62     c-0.261-0.621-0.522-1.241-0.783-1.862c-0.658-1.565-1.922-2.974-3.796-2.89C306.493,125.453,305.3,126.578,304.594,128.258z" data-original="#000000" class="active-path" data-old_color="#D5DA23" fill="#DEE421"/>
			<path d="M300.078,79.145c8.983,0,8.998-13.96,0-13.96C291.095,65.184,291.08,79.145,300.078,79.145z" data-original="#000000" class="active-path" data-old_color="#D5DA23" fill="#DEE421"/>
			<path d="M257.69,69.548c2.833-0.908,5.248-3.573,4.882-6.734c-0.195-1.679-0.554-3.093-1.795-4.333     c-1.063-1.063-2.806-1.863-4.333-1.795c-3.096,0.139-5.49,2.244-6.008,5.192c-0.042,0.098-0.076,0.182-0.123,0.292     c-0.092,0.552-0.166,1.107-0.221,1.664c0.009,1.582,0.643,3.06,1.764,4.171C253.327,69.465,255.67,70.196,257.69,69.548z" data-original="#000000" class="active-path" data-old_color="#D5DA23" fill="#DEE421"/>
			<path d="M215.91,134.499c0,3.414,2.716,5.895,5.764,6.177c0.496,0.154,1.01,0.242,1.525,0.219     c2.463-0.11,4.375-1.609,5.165-3.933c0.203-0.596,0.287-1.302,0.317-1.925c0.029-0.619-0.385-2.804-0.192-1.176     c0.144,1.18,0.1,0.876-0.133-0.914c-0.059-0.289-0.168-0.562-0.328-0.819c-0.541-1.28-1.417-2.419-2.714-3.026     c-2.076-0.971-4.244-1.208-6.309,0C217.104,130.215,215.91,132.296,215.91,134.499z" data-original="#000000" class="active-path" data-old_color="#D5DA23" fill="#DEE421"/>
			<path d="M174.701,130.162c-0.035,0.106-0.069,0.212-0.104,0.318c-1.476,4.559,2.469,9.247,7.044,9.247     c4.574,0,8.519-4.692,7.044-9.247c-0.035-0.106-0.069-0.212-0.104-0.318c-0.944-2.914-3.705-5.429-6.941-5.284     C178.365,125.024,175.715,127.031,174.701,130.162z" data-original="#000000" class="active-path" data-old_color="#D5DA23" fill="#DEE421"/>
			<path d="M195.148,89.177c5.849,0,5.859-9.09,0-9.09C189.299,80.086,189.288,89.177,195.148,89.177z" data-original="#000000" class="active-path" data-old_color="#D5DA23" fill="#DEE421"/>
		</g>
	</g>
</g></g> </svg>
